<svg width="128" height="128" viewBox="0 0 128 128" fill="none" xmlns="http://www.w3.org/2000/svg">
<rect width="128" height="128" rx="24" fill="#FA641E"/>
<path d="M71.0694 33.0111H45.9329C44.6242 32.9241 43.3329 33.3501 42.3329 34.1988C41.8676 34.6947 41.5101 35.2817 41.2829 35.9227C41.0557 36.5636 40.9638 37.2447 41.0128 37.923V92.0566C40.9718 93.0931 41.2166 94.1209 41.7204 95.0277C42.183 95.7002 42.8179 96.236 43.5587 96.5789C44.2994 96.9218 45.1188 97.0592 45.9309 96.9767H51.7448C52.8926 97.0347 54.0288 96.7237 54.9869 96.0891C55.5727 95.6035 56.0316 94.9826 56.3239 94.2801C56.6163 93.5775 56.7333 92.8144 56.6649 92.0566V78.5108L56.3359 78.4611C52.7149 78.1827 49.3124 76.6197 46.7419 74.0541V74.0541C50.146 76.1727 54.0876 77.2673 58.0967 77.2073H71.0652C83.4979 77.2073 91.9084 67.8968 91.9084 55.0234C91.9084 42.15 83.502 33.0111 71.0694 33.0111ZM56.5863 61.9773C55.2273 61.9802 53.898 61.58 52.7664 60.8273C51.6349 60.0747 50.7519 59.0034 50.2292 57.749C49.7065 56.4945 49.5675 55.1133 49.8298 53.7798C50.0922 52.4464 50.744 51.2207 51.7029 50.2577C52.6618 49.2947 53.8848 48.6378 55.2171 48.3698C56.5494 48.1019 57.9313 48.235 59.1879 48.7525C60.4445 49.2699 61.5195 50.1483 62.2769 51.2767C63.0343 52.405 63.4401 53.7326 63.443 55.0916V55.1061C63.4441 56.0074 63.2676 56.9 62.9237 57.7331C62.5798 58.5661 62.0752 59.3233 61.4387 59.9614C60.8022 60.5994 60.0463 61.1058 59.214 61.4517C58.3818 61.7976 57.4896 61.9762 56.5883 61.9773H56.5863ZM76.3267 61.9773C74.9678 61.9797 73.6387 61.5792 72.5074 60.8263C71.3761 60.0734 70.4935 59.002 69.9711 57.7476C69.4487 56.4931 69.31 55.1119 69.5726 53.7786C69.8351 52.4453 70.4871 51.2198 71.4462 50.257C72.4052 49.2942 73.6281 48.6374 74.9604 48.3697C76.2926 48.1019 77.6744 48.2352 78.9309 48.7526C80.1874 49.2701 81.2623 50.1486 82.0196 51.2769C82.7769 52.4052 83.1826 53.7327 83.1855 55.0916V55.1061C83.1866 56.0074 83.0101 56.9 82.6662 57.7331C82.3224 58.5661 81.8177 59.3233 81.1812 59.9614C80.5447 60.5994 79.7888 61.1058 78.9565 61.4517C78.1243 61.7976 77.2321 61.9762 76.3309 61.9773V61.9773H76.3267Z" fill="white"/>
</svg>